<?xml version="1.0" encoding="UTF-8" standalone="no"?>
<svg
   width="128"
   height="128"
   viewBox="0 0 128 128"
   fill="none"
   version="1.1"
   id="svg22"
   xmlns="http://www.w3.org/2000/svg"
   xmlns:svg="http://www.w3.org/2000/svg">
  <g
     id="g29"
     transform="matrix(1.1054942,0,0,1.1054942,-3.6317307,-6.6576791)"
     style="stroke-width:0.904573">
    <path
       opacity="0.154797"
       d="M 109.77912,10.541422 C 105.20955,6.7078031 98.576734,5.6399497 91.082754,7.5315008 83.588768,9.4230595 75.729233,14.148844 68.92842,20.85252 l 0.02436,0.02044 c -0.980446,0.85371 -1.909289,1.792625 -2.772498,2.821338 L 41.735774,52.825602 c -8.88432,10.587727 -7.512993,26.263673 3.074657,35.147928 l 0.0011,9e-4 c 10.58765,8.884255 26.263596,7.512928 35.147915,-3.074799 L 104.40393,55.768328 c 0.86321,-1.028713 1.62659,-2.106472 2.29709,-3.220256 l 0.0188,0.01575 c 5.42146,-7.862155 8.71097,-16.423504 9.27214,-24.132622 0.56125,-7.709061 -1.64283,-14.055711 -6.21281,-17.889777 z"
       fill="#000000"
       id="path1"
       style="stroke-width:0.904573" />
    <path
       d="m 78.8693,100.249 c 0,10.73 -12.6133,25.726 -12.6133,25.726 0,0 -12.6134,-14.972 -12.6134,-25.726 0,-4.5958 5.647,-8.3215 12.6134,-8.3215 6.9661,0 12.6133,3.7257 12.6133,8.3215 z"
       fill="url(#paint0_linear_163_603)"
       id="path3"
       style="fill:url(#paint0_linear_163_603);stroke-width:0.904573"
       transform="rotate(40.000512,74.171532,64.740275)"
       mask="url(#mask27)" />
    <path
       d="m 66.2562,112.625 c 13.3255,0 24.1278,-7.127 24.1278,-15.9182 0,-8.7913 -10.8023,-15.918 -24.1278,-15.918 -13.3254,0 -24.1278,7.1267 -24.1278,15.918 0,8.7912 10.8024,15.9182 24.1278,15.9182 z"
       fill="url(#paint1_radial_163_603)"
       id="path4"
       style="fill:url(#paint1_radial_163_603);stroke-width:0.904573"
       transform="rotate(40.000512,74.171532,64.740275)"
       mask="url(#mask26)" />
    <path
       d="m 66.2559,106.183 c 7.9322,0 14.3625,-4.242 14.3625,-9.4756 0,-5.2331 -6.4303,-9.4755 -14.3625,-9.4755 -7.9323,0 -14.3626,4.2424 -14.3626,9.4755 0,5.2336 6.4303,9.4756 14.3626,9.4756 z"
       fill="url(#paint2_radial_163_603)"
       id="path5"
       style="fill:url(#paint2_radial_163_603);stroke-width:0.904573"
       transform="rotate(40.000512,74.171532,64.740275)"
       mask="url(#mask25)" />
    <path
       d="m 66.256,100.049 c 2.7975,0 5.0653,-1.4964 5.0653,-3.342 0,-1.8456 -2.2678,-3.3418 -5.0653,-3.3418 -2.7975,0 -5.0653,1.4962 -5.0653,3.3418 0,1.8456 2.2678,3.342 5.0653,3.342 z"
       fill="#ffffff"
       id="path6"
       transform="rotate(40.000512,74.171532,64.740275)"
       mask="url(#mask24)"
       style="stroke-width:0.904573" />
    <path
       d="m 100.78366,20.163742 -3.1e-4,-2.57e-4 C 90.228485,11.306741 74.492241,12.683342 65.635498,23.238207 L 41.191567,52.36882 c -8.856743,10.554864 -7.48027,26.291261 3.074594,35.148004 l 3.06e-4,2.57e-4 c 10.554864,8.856744 26.291237,7.479989 35.14798,-3.074875 L 103.85838,55.311593 c 8.85674,-10.554864 7.48014,-26.291108 -3.07472,-35.147851 z"
       fill="#f6f5f4"
       id="path7"
       style="stroke-width:0.904573" />
    <path
       d="m 64,64 c 5.610927,4.708212 13.97622,3.976348 18.684368,-1.634502 C 87.39258,56.754571 86.660793,48.389342 81.049866,43.68113 75.438939,38.972917 67.07371,39.704705 62.365498,45.315632 57.65735,50.926482 58.389073,59.291788 64,64 Z"
       fill="#ffffff"
       id="path8"
       style="stroke-width:0.904573" />
    <path
       d="m 66.407819,61.130214 c 4.025916,3.378206 10.028186,2.8532 13.406456,-1.172793 3.378207,-4.025916 2.853124,-10.02825 -1.172792,-13.406456 -4.025993,-3.37827 -10.02825,-2.853124 -13.406456,1.172792 -3.378271,4.025993 -2.853201,10.028186 1.172792,13.406457 z"
       fill="#5e5c64"
       id="path9"
       style="stroke-width:0.904573" />
    <path
       d="m 100.78373,20.163806 c -1.543336,-1.295038 -3.196629,-2.365386 -4.919488,-3.228062 6.731118,9.06511 6.632078,21.819996 -0.95759,30.864845 L 70.462978,76.930896 c -7.589409,9.044542 -20.133363,11.356718 -30.229253,6.301514 1.171951,1.581283 2.525821,3.018886 4.032819,4.284736 10.587651,8.884255 26.263725,7.512775 35.14798,-3.074876 L 103.8582,55.311964 c 8.88444,-10.587881 7.51318,-26.263903 -3.07447,-35.148158 z"
       fill="#c0bfbc"
       fill-opacity="0.17"
       id="path10"
       style="stroke-width:0.904573" />
    <path
       d="M 109.63422,9.9844804 C 105.01999,6.1129131 98.322258,5.0343724 90.754748,6.9443233 83.187231,8.8542818 75.250613,13.626346 68.383074,20.395696 l 38.161136,32.021577 c 5.47424,-7.938746 8.79584,-16.583607 9.36268,-24.367936 0.56685,-7.784336 -1.65841,-14.193022 -6.27267,-18.0648566 z"
       fill="#ed333b"
       id="path11"
       style="stroke-width:0.904573" />
    <path
       d="m 40.43961,59.068672 -2.860129,8.474669 c -1.030879,3.05462 -3.157537,5.618585 -5.968977,7.19634 -2.811364,1.57782 -6.107659,2.057116 -9.252457,1.346371 L 10.477566,73.39858 C 9.5661019,73.192476 8.7230787,72.755304 8.0295302,72.128953 7.3353389,71.503368 6.8141096,70.709617 6.5159282,69.823671 6.217104,68.93849 6.1517261,67.990726 6.3251409,67.072326 c 0.172772,-0.917634 0.5794976,-1.776023 1.180587,-2.492205 l 2.9227861,-3.483178 c 1.190456,-1.418704 2.664813,-2.571506 4.328406,-3.384326 1.663528,-0.812744 3.479189,-1.267425 5.329535,-1.334534 l 17.863644,-0.64755 c 0.409258,-0.01479 0.815938,0.06994 1.185262,0.246958 0.369324,0.177014 0.690107,0.440967 0.934963,0.769269 0.244857,0.328302 0.406316,0.711031 0.470661,1.115528 0.06427,0.404434 0.02957,0.818377 -0.101375,1.206384 z"
       fill="#000000"
       fill-opacity="0.0937181"
       id="path12"
       style="stroke-width:0.904573" />
    <path
       d="m 41.389661,57.936467 -2.86013,8.474669 c -1.030879,3.05462 -3.157536,5.618585 -5.968977,7.19634 -2.811364,1.577819 -6.107659,2.057116 -9.252457,1.346371 L 11.427616,72.266375 C 10.516152,72.06027 9.6731289,71.623098 8.9795804,70.996747 8.2853891,70.371162 7.7641598,69.577412 7.4659784,68.691466 7.1671542,67.806285 7.1017763,66.85852 7.2751911,65.94012 c 0.172772,-0.917634 0.5794976,-1.776022 1.180587,-2.492204 l 2.9227859,-3.483178 c 1.190392,-1.418627 2.664813,-2.571506 4.328406,-3.384327 1.663593,-0.81282 3.479189,-1.267424 5.329536,-1.334533 l 17.863643,-0.647551 c 0.409259,-0.01479 0.815938,0.06995 1.185262,0.246959 0.369324,0.177014 0.690172,0.44089 0.935028,0.769192 0.244856,0.328302 0.406251,0.711107 0.470661,1.115529 0.06427,0.404433 0.02951,0.818452 -0.101439,1.20646 z"
       fill="#B0AFAC"
       id="path13"
       style="fill:#edeceb;fill-opacity:1;stroke-width:0.904573" />
    <path
       d="m 73.094155,86.469586 -7.849417,4.288084 c -2.829154,1.54566 -4.984921,4.085199 -6.05056,7.127882 -1.065715,3.042618 -0.96547,6.372008 0.280589,9.345688 l 4.709772,11.23366 c 0.361463,0.86203 0.937756,1.61582 1.675091,2.19015 0.736692,0.57509 1.609271,0.9509 2.53361,1.09079 0.923697,0.14066 1.868188,0.0403 2.742145,-0.29028 0.874081,-0.32915 1.648658,-0.87887 2.249671,-1.59512 l 2.922786,-3.48317 c 1.190456,-1.41871 2.069359,-3.07129 2.580906,-4.85081 0.511483,-1.77945 0.644399,-3.64601 0.388675,-5.48036 L 76.813847,88.341681 c -0.05649,-0.405611 -0.210631,-0.791464 -0.449005,-1.124379 -0.238452,-0.33298 -0.554093,-0.603061 -0.919923,-0.787194 -0.36583,-0.184134 -0.77078,-0.276687 -1.180306,-0.269822 -0.409449,0.0069 -0.81108,0.112973 -1.170458,0.3093 z"
       fill="#000000"
       fill-opacity="0.0937181"
       id="path14"
       style="stroke-width:0.904573" />
    <path
       d="m 57.148063,75.057421 c 0.659764,-0.786262 0.557148,-1.958475 -0.229038,-2.618175 -0.786262,-0.659765 -1.958411,-0.557225 -2.618175,0.229037 L 34.195011,96.629054 c -0.659507,0.785956 -0.556968,1.958105 0.229294,2.617869 0.786185,0.6597 1.958411,0.557225 2.617918,-0.228731 z"
       fill="#deddda"
       id="path15"
       style="stroke-width:0.904573" />
    <path
       d="m 112.62321,13.647259 c -2.38201,9.779511 -7.72747,20.696735 -15.225219,31.095024 l 9.369799,7.86234 c 4.77769,-6.928799 7.91626,-14.426004 8.96776,-21.421859 1.05146,-6.995793 -0.0378,-13.132868 -3.11234,-17.535505 z"
       fill="#e01b24"
       id="path16"
       style="stroke-width:0.904573" />
    <path
       d="m 74.044205,85.337381 -7.849416,4.288084 c -2.829155,1.54566 -4.984922,4.085198 -6.05056,7.127882 -1.065715,3.04262 -0.965471,6.372003 0.280588,9.345693 l 4.709773,11.23365 c 0.361462,0.86203 0.937755,1.61583 1.67509,2.19015 0.736693,0.57509 1.609271,0.95091 2.533611,1.0908 0.923697,0.14065 1.868187,0.0403 2.742145,-0.29028 0.87408,-0.32916 1.648657,-0.87887 2.24967,-1.59512 l 2.922787,-3.48318 c 1.190455,-1.4187 2.069358,-3.07129 2.580905,-4.85081 0.511483,-1.77944 0.644463,-3.64608 0.388675,-5.48035 L 77.763897,87.209476 c -0.05649,-0.405611 -0.210631,-0.791465 -0.449005,-1.12438 -0.238451,-0.332979 -0.554028,-0.603137 -0.919858,-0.78727 -0.36583,-0.184134 -0.770844,-0.276611 -1.180306,-0.269822 -0.40945,0.0069 -0.811145,0.11305 -1.170523,0.309377 z"
       fill="#ffffff"
       id="path17"
       style="fill:#f6f5f4;fill-opacity:1;stroke-width:0.904573" />
  </g>
  <defs
     id="defs22">
    <linearGradient
       id="paint0_linear_163_603"
       x1="66.2411"
       y1="98.0348"
       x2="66.2411"
       y2="131.728"
       gradientUnits="userSpaceOnUse">
      <stop
         stop-color="#E01B24"
         id="stop17" />
      <stop
         offset="1"
         stop-color="#E01B24"
         stop-opacity="0"
         id="stop18" />
    </linearGradient>
    <radialGradient
       id="paint1_radial_163_603"
       cx="0"
       cy="0"
       r="1"
       gradientUnits="userSpaceOnUse"
       gradientTransform="matrix(24.1281,0,0,15.9182,66.2568,96.7072)">
      <stop
         stop-color="#E5A50A"
         id="stop19" />
      <stop
         offset="1"
         stop-color="#E5A50A"
         stop-opacity="0"
         id="stop20" />
    </radialGradient>
    <radialGradient
       id="paint2_radial_163_603"
       cx="0"
       cy="0"
       r="1"
       gradientUnits="userSpaceOnUse"
       gradientTransform="matrix(14.3625,0,0,9.4755,66.2548,96.7066)">
      <stop
         stop-color="white"
         id="stop21" />
      <stop
         offset="1"
         stop-color="white"
         stop-opacity="0"
         id="stop22" />
    </radialGradient>
    <mask
       maskUnits="userSpaceOnUse"
       id="mask24">
      <g
         id="g25"
         transform="rotate(-40.000512,74.171532,64.740275)">
        <path
           d="m 54.945393,94.961032 c -6.897185,8.219598 -26.198807,11.599348 -26.198807,11.599348 0,0 -0.03843,-19.576951 6.874178,-27.814931 2.954155,-3.520561 9.675065,-2.744538 15.011367,1.733232 5.336302,4.477771 7.267416,10.96179 4.313262,14.482351 z"
           fill="#ffffff"
           id="path24" />
      </g>
    </mask>
    <mask
       maskUnits="userSpaceOnUse"
       id="mask25">
      <g
         id="g26"
         transform="rotate(-40.000512,74.171532,64.740275)">
        <path
           d="m 54.945393,94.961032 c -6.897185,8.219598 -26.198807,11.599348 -26.198807,11.599348 0,0 -0.03843,-19.576951 6.874178,-27.814931 2.954155,-3.520561 9.675065,-2.744538 15.011367,1.733232 5.336302,4.477771 7.267416,10.96179 4.313262,14.482351 z"
           fill="#ffffff"
           id="path25" />
      </g>
    </mask>
    <mask
       maskUnits="userSpaceOnUse"
       id="mask26">
      <g
         id="g27"
         transform="rotate(-40.000512,74.171532,64.740275)">
        <path
           d="m 54.945393,94.961032 c -6.897185,8.219598 -26.198807,11.599348 -26.198807,11.599348 0,0 -0.03843,-19.576951 6.874178,-27.814931 2.954155,-3.520561 9.675065,-2.744538 15.011367,1.733232 5.336302,4.477771 7.267416,10.96179 4.313262,14.482351 z"
           fill="#ffffff"
           id="path26" />
      </g>
    </mask>
    <mask
       maskUnits="userSpaceOnUse"
       id="mask27">
      <g
         id="g28"
         transform="rotate(-40.000512,74.171532,64.740275)">
        <path
           d="m 54.945393,94.961032 c -6.897185,8.219598 -26.198807,11.599348 -26.198807,11.599348 0,0 -0.03843,-19.576951 6.874178,-27.814931 2.954155,-3.520561 9.675065,-2.744538 15.011367,1.733232 5.336302,4.477771 7.267416,10.96179 4.313262,14.482351 z"
           fill="#ffffff"
           id="path27" />
      </g>
    </mask>
  </defs>
</svg>
