<svg width="128" height="128" viewBox="0 0 128 128" fill="none" xmlns="http://www.w3.org/2000/svg">
<mask id="mask0_163_646" style="mask-type:luminance" maskUnits="userSpaceOnUse" x="16" y="0" width="96" height="95">
<path d="M63.9993 0C37.4894 0 16 20.2027 16 45.1253C16.0115 55.0542 21.919 66.4177 32.3169 76.8154L50.3947 94.5571H78.3561L95.7462 76.7157C105.254 67.2071 111.98 55.0057 112 45.1253C112 20.2027 90.5092 0 63.9993 0Z" fill="white"/>
</mask>
<g mask="url(#mask0_163_646)">
<path d="M63.9993 0C37.4893 0 16 20.2027 16 45.1253C16.0115 55.0542 21.0148 64.5521 25.9437 72.5763L42.5071 103.721H85.4915L102.119 72.4564C106.984 64.5359 111.977 55.0057 111.999 45.1253C111.999 20.2027 90.5092 0 63.9993 0Z" fill="url(#paint0_radial_163_646)"/>
<path d="M62.5664 0C62.5664 0 36.3 16.3421 36.3 41.7429C36.3 61.3704 59.4744 103.721 59.4744 103.721H66.8648C66.8648 103.721 68.7748 61.3704 68.7748 41.7429C68.7748 16.3421 62.5664 0 62.5664 0Z" fill="url(#paint1_radial_163_646)"/>
<path d="M62.5421 0.142706C50.783 0.340719 39.1471 4.56768 30.3038 11.8551C21.4576 19.1411 15.4742 29.4297 13.7204 40.3622C11.9437 51.4414 14.5328 63.0918 20.8773 72.5762L48.0979 103.721H57.3138L38.2115 81.1851C32.0504 73.9179 26.0727 66.2735 23.0294 57.4317C19.9875 48.5898 19.9259 38.8427 23.0337 30.0224C25.8766 22.0021 31.1056 14.9161 38.1012 9.6042C45.1184 4.3182 53.6004 1.0342 62.5421 0.141357V0.142706Z" fill="url(#paint2_radial_163_646)"/>
<path d="M62.7914 0.169638C73.837 -1.91421 85.6734 -0.0378028 95.3822 5.33548C105.091 10.7088 112.579 19.5291 116 29.621C118.47 36.9461 118.844 44.7535 117.085 52.2577C115.303 59.7568 111.451 66.6824 105.918 72.3378L89.8615 103.482H70.6862L89.7899 71.6333C93.8992 64.781 97.7521 57.6162 98.9986 49.8371C100.245 42.0581 98.947 33.9813 95.5971 26.772C89.618 13.9079 77.2055 3.84298 62.7928 0.170987L62.7914 0.169638Z" fill="url(#paint3_radial_163_646)"/>
</g>
<path d="M53.4942 113.899V122.803C53.4926 123.39 53.607 123.971 53.8307 124.513C54.0545 125.056 54.3832 125.548 54.798 125.963C55.2128 126.378 55.7054 126.707 56.2477 126.931C56.79 127.155 57.3711 127.269 57.9578 127.268H70.0423C72.516 127.268 73.9868 125.222 74.506 122.803V113.899H53.4942Z" fill="#E5A50A"/>
<path d="M53.4942 111.989V120.894C53.4928 121.48 53.6073 122.061 53.8311 122.604C54.0549 123.146 54.3837 123.638 54.7984 124.053C55.2132 124.468 55.7058 124.797 56.248 125.02C56.7902 125.244 57.3712 125.359 57.9578 125.357H70.0423C72.516 125.357 73.9868 123.312 74.506 120.894V111.99L53.4942 111.989Z" fill="#E5A50A"/>
<path d="M66.8655 111.989V125.357H70.0423C72.516 125.357 73.9868 123.312 74.506 120.894V111.99L66.8655 111.989Z" fill="#F3AF0B"/>
<defs>
<radialGradient id="paint0_radial_163_646" cx="0" cy="0" r="1" gradientTransform="matrix(0.228477 73.2059 -68.8401 0.190429 63.5051 34.302)" gradientUnits="userSpaceOnUse">
<stop stop-color="white"/>
<stop offset="0.519" stop-color="white"/>
<stop offset="0.734" stop-color="#CFCFCF"/>
<stop offset="1" stop-color="#DCDCDC"/>
</radialGradient>
<radialGradient id="paint1_radial_163_646" cx="0" cy="0" r="1" gradientUnits="userSpaceOnUse" gradientTransform="translate(60.7909 28.5261) scale(77.4763 77.0489)">
<stop stop-color="#ED686F"/>
<stop offset="0.865" stop-color="#A51D2D"/>
<stop offset="1" stop-color="#E01B24"/>
</radialGradient>
<radialGradient id="paint2_radial_163_646" cx="0" cy="0" r="1" gradientTransform="matrix(18.1818 84.0491 -53.6353 10.2548 39.009 18.1545)" gradientUnits="userSpaceOnUse">
<stop stop-color="#ED686F"/>
<stop offset="0.911" stop-color="#A51D2D"/>
<stop offset="1" stop-color="#E01B24"/>
</radialGradient>
<radialGradient id="paint3_radial_163_646" cx="0" cy="0" r="1" gradientTransform="matrix(-18.1818 84.0491 53.6353 10.2548 87.786 17.9161)" gradientUnits="userSpaceOnUse">
<stop stop-color="#ED686F"/>
<stop offset="0.911" stop-color="#A51D2D"/>
<stop offset="1" stop-color="#E01B24"/>
</radialGradient>
</defs>
</svg>
