<?xml version="1.0" encoding="UTF-8" standalone="no"?>
<svg
   width="128"
   height="128"
   viewBox="0 0 128 128"
   fill="none"
   version="1.1"
   id="svg4"
   xmlns="http://www.w3.org/2000/svg"
   xmlns:svg="http://www.w3.org/2000/svg">
  <defs
     id="defs4" />
  <path
     id="path9"
     mask="none"
     style="fill:#e5a50a;stroke:#e5a50a;stroke-width:2;stroke-dasharray:none;stroke-opacity:1"
     d="M 98.704657,115.84252 63.999965,91.000045 29.51959,115.93104 42.784746,75.563338 8.0559887,47.159383 52.547079,47.301099 63.975889,9.421805 l 10.995736,37.455157 45.028255,0.1392 -34.459238,27.861056 z" />
  <path
     id="path2016"
     mask="none"
     style="fill:#f6d32d;stroke-width:10.4425"
     d="M 98.704657,111.84252 63.999965,87.000045 29.51959,111.93104 42.784746,71.563338 8.0559887,46.159383 50.547079,46.301099 63.975889,5.4218055 76.971625,45.876962 l 43.028255,0.1392 -34.459238,24.861056 z" />
  <path
     style="opacity:0.2;fill:#f9f06b;stroke:none;stroke-width:1px;stroke-linecap:butt;stroke-linejoin:miter;stroke-opacity:1"
     d="M 29.519544,111.93103 63.975935,5.421772 64,87 Z"
     id="path4" />
  <path
     style="opacity:0.3;fill:#e5a50a;stroke:none;stroke-width:1px;stroke-linecap:butt;stroke-linejoin:miter;stroke-opacity:1"
     d="M 99,112 64,63 8.0559887,46.159383 Z"
     id="path5" />
  <path
     style="opacity:0.4;fill:#f5c211;stroke:none;stroke-width:1px;stroke-linecap:butt;stroke-linejoin:miter;stroke-opacity:1"
     d="M 98.555119,111.37717 64.024065,6.745371 64,87 Z"
     id="path7" />
  <path
     id="path8"
     style="opacity:0.4;fill:#f8e45c;stroke:none;stroke-width:1px;stroke-linecap:butt;stroke-linejoin:miter;stroke-opacity:1"
     d="M 64.011719,46.158203 8.0566406,46.160156 64,63 64.0078,62.998 Z" />
  <path
     id="path6"
     style="opacity:0.2;fill:#f9f06b;stroke:none;stroke-width:1px;stroke-linecap:butt;stroke-linejoin:miter;stroke-opacity:1"
     d="m 64.007812,62.994141 -0.01562,0.0039 -35,48.999999 L 64,86.654297 Z" />
  <path
     id="path10"
     style="opacity:0.4;fill:#f9f06b;stroke:none;stroke-width:1px;stroke-linecap:butt;stroke-linejoin:miter;stroke-opacity:1"
     d="m 63.982422,46.158203 55.955078,0.002 L 63.994141,63 l -0.0078,-0.002 z m -13.019531,0 -3.876953,11.75 -39.0292974,-11.75 z" />
  <path
     id="path11"
     style="opacity:0.4;fill:#f6d32d;stroke:none;stroke-width:1px;stroke-linecap:butt;stroke-linejoin:miter;stroke-opacity:1"
     d="M 64.023438,6.7460938 64.007812,63.009766 98.554688,111.37695 Z M 64,86.662109 V 87 l 18.308594,12.91602 z" />
</svg>
