<svg width="128" height="128" viewBox="0 0 128 128" fill="none" xmlns="http://www.w3.org/2000/svg">
<path d="M89.8928 84.2678H37.1785C32.3263 84.2678 28.3928 88.2013 28.3928 93.0535V117.214C28.3928 122.066 32.3263 126 37.1785 126H89.8928C94.745 126 98.6785 122.066 98.6785 117.214V93.0535C98.6785 88.2013 94.745 84.2678 89.8928 84.2678Z" fill="#464153"/>
<path d="M94.2857 38.1428H32.7857C27.9335 38.1428 24 42.0763 24 46.9285V117.214C24 122.066 27.9335 126 32.7857 126H94.2857C99.1379 126 103.071 122.066 103.071 117.214V46.9285C103.071 42.0763 99.1379 38.1428 94.2857 38.1428Z" fill="url(#paint0_linear_163_672)"/>
<path d="M94.2857 3H32.7857C27.9335 3 24 6.9335 24 11.7857V104.036C24 108.888 27.9335 112.821 32.7857 112.821H94.2857C99.1379 112.821 103.071 108.888 103.071 104.036V11.7857C103.071 6.9335 99.1379 3 94.2857 3Z" fill="url(#paint1_linear_163_672)"/>
<path d="M94.2856 7.39282H32.7857C30.3596 7.39282 28.3928 9.35957 28.3928 11.7857V104.036C28.3928 106.462 30.3596 108.428 32.7857 108.428H94.2856C96.7117 108.428 98.6785 106.462 98.6785 104.036V11.7857C98.6785 9.35957 96.7117 7.39282 94.2856 7.39282Z" fill="#3D3846"/>
<path d="M81.1071 15.0804C82.3201 15.0804 83.3035 14.097 83.3035 12.8839C83.3035 11.6709 82.3201 10.6875 81.1071 10.6875C79.894 10.6875 78.9106 11.6709 78.9106 12.8839C78.9106 14.097 79.894 15.0804 81.1071 15.0804Z" fill="#9A9996"/>
<path d="M67.9286 11.7856H59.1429C58.5364 11.7856 58.0447 12.2773 58.0447 12.8839C58.0447 13.4904 58.5364 13.9821 59.1429 13.9821H67.9286C68.5351 13.9821 69.0268 13.4904 69.0268 12.8839C69.0268 12.2773 68.5351 11.7856 67.9286 11.7856Z" fill="#9A9996"/>
<path d="M39.375 3H34.9822V7.39286H39.375V3Z" fill="#C0BFBC"/>
<path d="M39.375 108.428H34.9822V112.821H39.375V108.428Z" fill="#DEDDDA"/>
<path d="M39.375 126H34.9822V112.821H39.375V126Z" fill="#77767B"/>
<path d="M92.0891 3H87.6963V7.39286H92.0891V3Z" fill="#DEDDDA"/>
<path d="M92.0891 108.428H87.6963V112.821H92.0891V108.428Z" fill="#C0BFBC"/>
<path d="M92.0891 126H87.6963V112.821H92.0891V126Z" fill="#77767B"/>
<path d="M66.2813 116.116H60.7902C59.2739 116.116 58.0447 117.345 58.0447 118.862C58.0447 120.378 59.2739 121.607 60.7902 121.607H66.2813C67.7976 121.607 69.0268 120.378 69.0268 118.862C69.0268 117.345 67.7976 116.116 66.2813 116.116Z" fill="#241F31"/>
<path d="M58.1004 118.312C58.0648 118.489 58.0447 118.673 58.0447 118.861C58.0447 120.382 59.2692 121.607 60.7902 121.607H66.2813C67.8023 121.607 69.0268 120.382 69.0268 118.861C69.0268 118.673 69.0067 118.489 68.971 118.312C68.7182 119.569 67.6144 120.509 66.2813 120.509H60.7902C59.4571 120.509 58.3533 119.569 58.1004 118.312Z" fill="#9A9996"/>
<path d="M44.3168 117.214C43.8799 117.214 43.4609 117.388 43.1519 117.697C42.843 118.006 42.6694 118.425 42.6694 118.862C42.6694 119.299 42.843 119.718 43.1519 120.027C43.4609 120.335 43.8799 120.509 44.3168 120.509C44.7537 120.509 45.1727 120.335 45.4816 120.027C45.7905 119.718 45.9641 119.299 45.9641 118.862C45.9641 118.425 45.7905 118.006 45.4816 117.697C45.1727 117.388 44.7537 117.214 44.3168 117.214ZM48.7096 117.214C48.2727 117.214 47.8537 117.388 47.5448 117.697C47.2358 118.006 47.0623 118.425 47.0623 118.862C47.0623 119.299 47.2358 119.718 47.5448 120.027C47.8537 120.335 48.2727 120.509 48.7096 120.509C49.1465 120.509 49.5655 120.335 49.8744 120.027C50.1834 119.718 50.3569 119.299 50.3569 118.862C50.3569 118.425 50.1834 118.006 49.8744 117.697C49.5655 117.388 49.1465 117.214 48.7096 117.214ZM53.1025 117.214C52.6656 117.214 52.2466 117.388 51.9376 117.697C51.6287 118.006 51.4551 118.425 51.4551 118.862C51.4551 119.299 51.6287 119.718 51.9376 120.027C52.2466 120.335 52.6656 120.509 53.1025 120.509C53.5394 120.509 53.9584 120.335 54.2673 120.027C54.5762 119.718 54.7498 119.299 54.7498 118.862C54.7498 118.425 54.5762 118.006 54.2673 117.697C53.9584 117.388 53.5394 117.214 53.1025 117.214Z" fill="#241F31"/>
<path d="M73.9686 120.509C74.8784 120.509 75.6159 119.771 75.6159 118.862C75.6159 117.952 74.8784 117.214 73.9686 117.214C73.0588 117.214 72.3213 117.952 72.3213 118.862C72.3213 119.771 73.0588 120.509 73.9686 120.509Z" fill="#241F31"/>
<path d="M78.3617 120.509C79.2715 120.509 80.009 119.771 80.009 118.862C80.009 117.952 79.2715 117.214 78.3617 117.214C77.4519 117.214 76.7144 117.952 76.7144 118.862C76.7144 119.771 77.4519 120.509 78.3617 120.509Z" fill="#241F31"/>
<path d="M82.7545 120.509C83.6643 120.509 84.4018 119.771 84.4018 118.862C84.4018 117.952 83.6643 117.214 82.7545 117.214C81.8447 117.214 81.1072 117.952 81.1072 118.862C81.1072 119.771 81.8447 120.509 82.7545 120.509Z" fill="#241F31"/>
<path d="M45.8697 118.31C45.7565 118.632 45.5464 118.91 45.2682 119.107C44.9901 119.305 44.6576 119.41 44.3168 119.411C43.9764 119.411 43.6443 119.305 43.3662 119.109C43.0882 118.913 42.8777 118.635 42.7638 118.315C42.7016 118.49 42.6697 118.675 42.6694 118.862C42.6694 119.298 42.843 119.717 43.1519 120.026C43.4609 120.335 43.8799 120.509 44.3168 120.509C44.7537 120.509 45.1727 120.335 45.4816 120.026C45.7905 119.717 45.9641 119.298 45.9641 118.862C45.9643 118.674 45.9323 118.487 45.8697 118.31ZM50.2626 118.31C50.1494 118.632 49.9392 118.91 49.6611 119.107C49.3829 119.305 49.0505 119.41 48.7096 119.411C48.3692 119.411 48.0372 119.305 47.7591 119.109C47.481 118.913 47.2706 118.635 47.1567 118.315C47.0945 118.49 47.0626 118.675 47.0623 118.862C47.0623 119.298 47.2358 119.717 47.5448 120.026C47.8537 120.335 48.2727 120.509 48.7096 120.509C49.1465 120.509 49.5655 120.335 49.8744 120.026C50.1834 119.717 50.3569 119.298 50.3569 118.862C50.3571 118.674 50.3252 118.487 50.2626 118.31ZM54.6554 118.31C54.5422 118.632 54.3321 118.91 54.0539 119.107C53.7758 119.305 53.4434 119.41 53.1025 119.411C52.7621 119.411 52.43 119.305 52.152 119.109C51.8739 118.913 51.6634 118.635 51.5495 118.315C51.4874 118.49 51.4554 118.675 51.4551 118.862C51.4551 119.298 51.6287 119.717 51.9376 120.026C52.2466 120.335 52.6656 120.509 53.1025 120.509C53.5394 120.509 53.9584 120.335 54.2673 120.026C54.5762 119.717 54.7498 119.298 54.7498 118.862C54.75 118.674 54.7181 118.487 54.6554 118.31Z" fill="#9A9996"/>
<path d="M75.5216 118.31C75.4084 118.632 75.1982 118.91 74.9201 119.107C74.6419 119.305 74.3095 119.41 73.9686 119.411C73.6282 119.411 73.2962 119.305 73.0181 119.109C72.74 118.913 72.5296 118.635 72.4157 118.315C72.3535 118.49 72.3216 118.675 72.3213 118.862C72.3213 119.298 72.4948 119.717 72.8038 120.026C73.1127 120.335 73.5317 120.509 73.9686 120.509C74.4055 120.509 74.8245 120.335 75.1334 120.026C75.4424 119.717 75.6159 119.298 75.6159 118.862C75.6161 118.674 75.5842 118.487 75.5216 118.31ZM79.9144 118.31C79.8012 118.632 79.5911 118.91 79.3129 119.107C79.0348 119.305 78.7024 119.41 78.3615 119.411C78.0211 119.411 77.689 119.305 77.411 119.109C77.1329 118.913 76.9224 118.635 76.8085 118.315C76.7464 118.49 76.7144 118.675 76.7141 118.862C76.7141 119.298 76.8877 119.717 77.1966 120.026C77.5056 120.335 77.9246 120.509 78.3615 120.509C78.7984 120.509 79.2174 120.335 79.5263 120.026C79.8352 119.717 80.0088 119.298 80.0088 118.862C80.009 118.674 79.9771 118.487 79.9144 118.31ZM84.3073 118.31C84.1941 118.632 83.9839 118.91 83.7058 119.107C83.4276 119.305 83.0952 119.41 82.7543 119.411C82.414 119.411 82.0819 119.305 81.8038 119.109C81.5257 118.913 81.3153 118.635 81.2014 118.315C81.1392 118.49 81.1073 118.675 81.107 118.862C81.107 119.298 81.2806 119.717 81.5895 120.026C81.8984 120.335 82.3174 120.509 82.7543 120.509C83.1912 120.509 83.6102 120.335 83.9192 120.026C84.2281 119.717 84.4016 119.298 84.4016 118.862C84.4018 118.674 84.3699 118.487 84.3073 118.31Z" fill="#9A9996"/>
<path d="M43.768 98.5445C47.4072 98.5445 50.3573 95.5944 50.3573 91.9552C50.3573 88.3161 47.4072 85.366 43.768 85.366C40.1288 85.366 37.1787 88.3161 37.1787 91.9552C37.1787 95.5944 40.1288 98.5445 43.768 98.5445Z" fill="#F8E45C"/>
<path d="M63.5358 98.5445C67.175 98.5445 70.1251 95.5944 70.1251 91.9552C70.1251 88.3161 67.175 85.366 63.5358 85.366C59.8967 85.366 56.9465 88.3161 56.9465 91.9552C56.9465 95.5944 59.8967 98.5445 63.5358 98.5445Z" fill="#33D17A"/>
<path d="M83.3036 98.5445C86.9428 98.5445 89.8929 95.5944 89.8929 91.9552C89.8929 88.3161 86.9428 85.366 83.3036 85.366C79.6645 85.366 76.7144 88.3161 76.7144 91.9552C76.7144 95.5944 79.6645 98.5445 83.3036 98.5445Z" fill="#ED333B"/>
<path d="M43.768 77.6786C47.4072 77.6786 50.3573 74.7284 50.3573 71.0893C50.3573 67.4501 47.4072 64.5 43.768 64.5C40.1288 64.5 37.1787 67.4501 37.1787 71.0893C37.1787 74.7284 40.1288 77.6786 43.768 77.6786Z" fill="#ED333B"/>
<path d="M63.5358 77.6786C67.175 77.6786 70.1251 74.7284 70.1251 71.0893C70.1251 67.4501 67.175 64.5 63.5358 64.5C59.8967 64.5 56.9465 67.4501 56.9465 71.0893C56.9465 74.7284 59.8967 77.6786 63.5358 77.6786Z" fill="#62A0EA"/>
<path d="M83.3036 77.6786C86.9428 77.6786 89.8929 74.7284 89.8929 71.0893C89.8929 67.4501 86.9428 64.5 83.3036 64.5C79.6645 64.5 76.7144 67.4501 76.7144 71.0893C76.7144 74.7284 79.6645 77.6786 83.3036 77.6786Z" fill="#33D17A"/>
<path d="M43.768 56.8124C47.4072 56.8124 50.3573 53.8622 50.3573 50.2231C50.3573 46.5839 47.4072 43.6338 43.768 43.6338C40.1288 43.6338 37.1787 46.5839 37.1787 50.2231C37.1787 53.8622 40.1288 56.8124 43.768 56.8124Z" fill="#33D17A"/>
<path d="M63.5358 56.8124C67.175 56.8124 70.1251 53.8622 70.1251 50.2231C70.1251 46.5839 67.175 43.6338 63.5358 43.6338C59.8967 43.6338 56.9465 46.5839 56.9465 50.2231C56.9465 53.8622 59.8967 56.8124 63.5358 56.8124Z" fill="#DEDDDA"/>
<path d="M83.3036 56.8124C86.9428 56.8124 89.8929 53.8622 89.8929 50.2231C89.8929 46.5839 86.9428 43.6338 83.3036 43.6338C79.6645 43.6338 76.7144 46.5839 76.7144 50.2231C76.7144 53.8622 79.6645 56.8124 83.3036 56.8124Z" fill="#F8E45C"/>
<path d="M43.768 35.9464C47.4072 35.9464 50.3573 32.9963 50.3573 29.3571C50.3573 25.7179 47.4072 22.7678 43.768 22.7678C40.1288 22.7678 37.1787 25.7179 37.1787 29.3571C37.1787 32.9963 40.1288 35.9464 43.768 35.9464Z" fill="#62A0EA"/>
<path d="M63.5358 35.9464C67.175 35.9464 70.1251 32.9963 70.1251 29.3571C70.1251 25.7179 67.175 22.7678 63.5358 22.7678C59.8967 22.7678 56.9465 25.7179 56.9465 29.3571C56.9465 32.9963 59.8967 35.9464 63.5358 35.9464Z" fill="#ED333B"/>
<path d="M83.3036 35.9464C86.9428 35.9464 89.8929 32.9963 89.8929 29.3571C89.8929 25.7179 86.9428 22.7678 83.3036 22.7678C79.6645 22.7678 76.7144 25.7179 76.7144 29.3571C76.7144 32.9963 79.6645 35.9464 83.3036 35.9464Z" fill="#DEDDDA"/>
<defs>
<linearGradient id="paint0_linear_163_672" x1="24" y1="113.449" x2="103.071" y2="113.449" gradientUnits="userSpaceOnUse">
<stop stop-color="#3D3846"/>
<stop offset="0.0454546" stop-color="#9A9996"/>
<stop offset="0.0909091" stop-color="#5E5C64"/>
<stop offset="0.909091" stop-color="#5E5C64"/>
<stop offset="0.953418" stop-color="#9A9996"/>
<stop offset="1" stop-color="#3D3846"/>
</linearGradient>
<linearGradient id="paint1_linear_163_672" x1="-0.709803" y1="-5.78571" x2="95.2534" y2="82.9788" gradientUnits="userSpaceOnUse">
<stop stop-color="#DEDDDA"/>
<stop offset="0.339439" stop-color="#77767B"/>
<stop offset="0.72" stop-color="#C0BFBC"/>
<stop offset="1" stop-color="#77767B"/>
</linearGradient>
</defs>
</svg>
